#!OML:ASF E:/inclinewalkrobotboard/Project1/Captureday1/Session1/subject1.ASF
:FULLY-SPECIFIED
:DEGREES
213
root 0 0 0 -3.9613934679463827 -1.527814490149869 -4.2420301107190275
lowerback 12.12075876005499 -0.6486821109789626 1.9847834714173864
upperback 0.7505287347535048 -0.42896697745344614 2.694556257603498
thorax -6.051030617298573 -0.22607990108306186 1.773076502374864
lowerneck -15.838481390111996 -2.8317731076699073 -1.4468725967175038
upperneck 21.654875724903924 -3.460520939516174 -0.281736235764559
head 9.57291462054196 -1.766362728034414 -0.2929055091939515
rclavicle 2.435779220479169E-15 -4.955101754110273E-15
rhumerus -32.06356704565489 -23.54727177761177 -76.59850702633702
rradius 24.391237560481734
rwrist 4.361061614616669
rhand -18.36991353548141 22.777259257603127
rfingers 7.12502000000002
rthumb 7.916361480491161 -7.1108384765060215
lclavicle -8.491573804818811E-16 -4.866579121485054E-15
lhumerus -33.28944908868156 -1.8703917407867825 84.42565480945215
lradius 29.067933450132415
lwrist 6.633437473215325
lhand -27.37826633859232 23.591886967853547
lfingers 7.125020000000025
lthumb -0.7754747752988065 53.573285252160346
rfemur -15.454982553257476 6.614272245608303 27.614838267847613
rtibia 30.205183172514097
rfoot -11.791039047496707 -6.403894751547429
rtoes 11.222003525777538
lfemur -20.998627785582922 5.020105742477562 -15.155348963773585
ltibia 68.28564891617644
lfoot 2.470110376618443 -10.701167820554174
ltoes -1.1077644752297928
214
root 0 0 0 -3.275426385557328 -3.3450963767429647 -5.7136184645740276
lowerback 11.085472307389262 0.6219896364400723 4.334797546284786
upperback 0.027109061503005433 1.5192740689992266 2.3116706338276645
thorax -6.164838849356872 0.6683863281371666 -0.25066386819159225
lowerneck -16.761936129410493 -3.160008641155328 -1.3481645329683727
upperneck 23.475050159624647 -4.096412468766804 -0.06615386992884598
head 10.395131935003608 -1.9836321164335797 -0.33795782572791927
rclavicle 9.312112878833337E-16 -3.1859420978665557E-16
rhumerus -31.276356764416494 -21.88777585268644 -77.04557293126923
rradius 26.191283084631515
rwrist 2.9053875254998394
rhand -18.65097989384294 22.99349628235501
rfingers 7.1250200000000214
rthumb 7.6405837779764845 -6.887517420615296
lclavicle -2.377924577670135E-15 -5.2818427218328907E-17
lhumerus -33.9299733836086 -1.5793254800849592 84.56902533072184
lradius 28.81214952262277
lwrist 6.691602136413609
lhand -27.32483230810898 23.588488866211893
lfingers 7.125020000000025
lthumb -0.7249467088667325 53.5658871740124
rfemur -5.479583965325596 7.8935948675676055 33.965281836426755
rtibia 31.55247823949026
rfoot -19.05268781344533 -7.127842183877883
rtoes 9.419836541474087
lfemur -23.7865039076672 5.594733858142604 -14.903200068543338
ltibia 67.02218981524362
lfoot -0.47857470474791697 -8.31539571727568
ltoes -0.22778397309628673
215
root 0 0 0 -2.3270513337475207 -4.4304949761538825 -6.734933728818021
lowerback 11.231731054342687 1.3932707016425696 5.868144611385186
upperback 0.15734608456589277 2.728869926762931 2.3099724978446954
thorax -5.99059370778566 1.2268669836687347 -1.2943058303700834
lowerneck -17.373817148310053 -3.4849784566600652 -1.4365929693186827
upperneck 23.333462353268036 -4.531276683293636 0.022408107068845107
head 10.457708200541655 -2.1771445828662537 -0.3591485359626408
rclavicle 4.953197738688637E-16 1.4855939348125452E-15
rhumerus -30.455143074041995 -20.543690516337787 -77.47145259530247
rradius 27.22737086429443
rwrist 1.9957472166985566
rhand -18.855808715148417 23.373934886147342
rfingers 7.125020000000021
rthumb 7.443454206160011 -6.509847661196066
lclavicle -2.597414521862084E-15 1.900743961679198E-15
lhumerus -34.53059776310237 -1.2741846045183458 84.7846364652621
lradius 28.540546998991132
lwrist 6.7500161317921865
lhand -27.277289580706828 23.71532230930637
lfingers 7.125020000000021
lthumb -0.6804506457287225 53.695555069010084
rfemur -1.3226005671561971 8.383979174074293 36.44128324670279
rtibia 32.19134272428844
rfoot -21.688376257465684 -7.415352089628919
rtoes 8.771517752531278
lfemur -25.267820744789105 4.909919320947622 -14.010138479253396
ltibia 62.840001586842654
lfoot -1.6056766178914152 -6.456194877262012
ltoes -0.6708595344945962
216
root 0 0 0 -1.8689078969800672 -4.884511695753739 -7.048199294090084
lowerback 11.67706442995373 1.7044708370654114 6.3337799530402545
upperback 0.5110991782626485 3.182560532229166 2.2725674762856922
thorax -5.807207979380433 1.439448657483328 -1.662163249314967
lowerneck -17.340347988344938 -3.5819096123476997 -1.4633167022398839
upperneck 21.139115581509248 -4.590791913009552 0.1149069736985715
head 9.678058468113198 -2.2319027214531366 -0.3140930113464208
rclavicle 1.1621373554384123E-15 1.2753944042310529E-15
rhumerus -29.267478941418236 -18.869661632211468 -77.91246763787304
rradius 28.374434984602495
rwrist 1.097026869186407
rhand -19.062337428444604 23.978091113048883
rfingers 7.125020000000018
rthumb 7.245638847981875 -5.91004382200207
lclavicle -2.0424239951326985E-15 1.7303318999209955E-15
lhumerus -34.955134240066386 -1.0433398158962568 84.95267848237009
lradius 28.304822504864156
lwrist 6.7415652122667495
lhand -27.270482131102902 23.795685644550275
lfingers 7.125020000000016
lthumb -0.6737161949028341 53.78281963312036
rfemur -0.33508582997836456 8.434839717616425 36.71547817272703
rtibia 32.143006952035876
rfoot -22.007737206772493 -7.587863878022539
rtoes 8.42657280782737
lfemur -30.675088052031086 2.4644557695209777 -11.2602091170219
ltibia 43.80018080691338
lfoot -6.729957169908714 0.8518869669809273
ltoes -4.929506163609513
217
root 0 0 0 -1.681534581263297 -5.126051101033385 -7.149698734238151
lowerback 11.587059216360279 1.8083289966935951 6.5693654292733
upperback 0.7230253847365039 3.3272850624364505 2.2487813557305216
thorax -5.506684253521084 1.5074831567899885 -1.8337879656915734
lowerneck -17.480651225499987 -3.5473077265702555 -1.5487385018059894
upperneck 20.097204313564326 -4.500764843574587 0.20661301274800792
head 9.298966875387876 -2.2041237659610444 -0.255937186802807
rclavicle 1.8266183334161475E-15 7.29194108187848E-16
rhumerus -28.21406224224833 -17.654751313905813 -78.00377163662304
rradius 29.417279959315366
rwrist 0.32898010187505555
rhand -19.23838891279699 24.464721980207365
rfingers 7.125020000000017
rthumb 7.076786112755364 -5.439487963949627
lclavicle -1.734767586031111E-15 1.3522417122842504E-15
lhumerus -35.14596680594456 -0.8735694689239913 84.95846834032673
lradius 28.148885947405397
lwrist 6.658387255409517
lhand -27.29841784117341 23.701307012653285
lfingers 7.125020000000015
lthumb -0.7004077877501089 53.69155148652381
rfemur 1.1363958060468144 8.406852069822207 36.45794160052668
rtibia 31.140107745858266
rfoot -22.167429375477045 -7.616917405424216
rtoes 6.973451374068613
lfemur -28.717669757468272 -1.4105887731468458 -10.707509746605687
ltibia 26.050532538927616
lfoot -5.646545862604562 3.8737325937270395
ltoes -5.990126653479223
